<svg xmlns="http://www.w3.org/2000/svg" width="32" height="32" viewBox="0 0 32 32">
  <defs>
    <linearGradient id="bg" x1="0%" y1="0%" x2="100%" y2="100%">
      <stop offset="0%" style="stop-color:#6366f1;stop-opacity:1" />
      <stop offset="100%" style="stop-color:#8b5cf6;stop-opacity:1" />
    </linearGradient>
    <linearGradient id="shine" x1="0%" y1="0%" x2="0%" y2="100%">
      <stop offset="0%" style="stop-color:#ffffff;stop-opacity:0.2" />
      <stop offset="100%" style="stop-color:#ffffff;stop-opacity:0" />
    </linearGradient>
  </defs>
  <!-- Rounded square background -->
  <rect width="32" height="32" rx="7" fill="url(#bg)" />
  <!-- Shine overlay -->
  <rect width="32" height="16" rx="7" fill="url(#shine)" />
  <!-- Document icon -->
  <rect x="8" y="7" width="12" height="15" rx="1.5" fill="white" opacity="0.9"/>
  <rect x="8" y="7" width="12" height="15" rx="1.5" fill="none" stroke="white" stroke-width="0.5" opacity="0.5"/>
  <!-- Fold corner -->
  <path d="M17 7 L20 10 L17 10 Z" fill="#8b5cf6" opacity="0.7"/>
  <path d="M17 7 L20 10" stroke="#a78bfa" stroke-width="0.5" fill="none"/>
  <!-- Document lines -->
  <rect x="10" y="12" width="7" height="1" rx="0.5" fill="#8b5cf6" opacity="0.6"/>
  <rect x="10" y="14.5" width="7" height="1" rx="0.5" fill="#8b5cf6" opacity="0.6"/>
  <rect x="10" y="17" width="5" height="1" rx="0.5" fill="#8b5cf6" opacity="0.4"/>
  <!-- AI spark / star -->
  <circle cx="21" cy="21" r="5" fill="#1e1b4b" opacity="0.8"/>
  <path d="M21 17.5 L21.6 19.9 L24 20.5 L21.6 21.1 L21 23.5 L20.4 21.1 L18 20.5 L20.4 19.9 Z" fill="white" opacity="0.95"/>
</svg>
